<svg width="777" height="540" viewBox="0 0 777 540" fill="none" xmlns="http://www.w3.org/2000/svg">
<g id="logo-dk-sombra">
<g id="nome">
<path id="K" d="M502 193V285.5H523.5V260.5L536.5 247.5L565.5 285.5H590.5L550.5 232.5L590 193H566L523.5 235.5V193H502Z" fill="black" stroke="black" stroke-width="2"/>

<g id="D">
<path fill-rule="evenodd" clip-rule="evenodd" d="M393 285.002H443.5C469.5 285.002 484.5 257.504 484.5 234.002C484.5 210.5 457.5 193 443.5 193.002C429.5 193.004 393 193.002 393 193.002V285.002ZM443 267C433 267.5 415 267 415 267V211.5H443C452.5 211.5 463.5 226 463.5 238C463.5 250 453 266.5 443 267Z" fill="black"/>
<path d="M393 285.002C393 285.002 417.5 285.002 443.5 285.002M393 285.002V193.002C393 193.002 429.5 193.004 443.5 193.002C457.5 193 484.5 210.5 484.5 234.002C484.5 257.504 469.5 285.002 443.5 285.002M393 285.002H443.5M443 211.5C452.5 211.5 463.5 226 463.5 238C463.5 250 453 266.5 443 267C433 267.5 415 267 415 267V211.5M443 211.5C433.5 211.5 415 211.5 415 211.5M443 211.5H415" stroke="black" stroke-width="2"/>
</g>

<text id="CONFEC&#195;&#135;&#195;&#149;ES" fill="black" stroke="black" xml:space="preserve" style="white-space: pre" font-family="Inter" font-size="48" letter-spacing="0em"><tspan x="389" y="344.455">CONFEC&#xc7;&#xd5;ES</tspan></text>
</g>
<path id="logo-dk" d="M263.078 338.629L230.699 308.949L164.592 376.405C164.592 376.405 198.32 376.405 230.699 376.405C249.671 376.405 264.958 369.928 280.323 355.875M311.646 317.043C299.381 334.928 291.181 345.944 280.323 355.875M296.806 245.54L269.824 272.523L373.706 376.405H300.853L280.323 355.875M315.694 226.652L373.706 164.593H300.853L164.592 300.854V164.593C164.592 164.593 218.459 164.419 230.699 164.593C242.939 164.768 259.167 164.838 265.776 171.339M281.966 187.528C297.002 199.183 327.827 238.529 321.09 288.712" stroke="black" stroke-width="13.4912" stroke-miterlimit="16" stroke-linecap="square"/>
</g>
</svg>
