<svg width="200" height="200" viewBox="0 0 200 200" fill="none" xmlns="http://www.w3.org/2000/svg">
<path d="M97.5 125.5L85.5 114.5L61 139.5C61 139.5 73.5 139.5 85.5 139.5C92.5313 139.5 98.1967 137.1 103.891 131.892M115.5 117.5C110.954 124.129 107.915 128.211 103.891 131.892M110 91.0004L100 101L138.5 139.5H111.5L103.891 131.892M117 84.0002L138.5 61.0004H111.5L61 111.5V61.0004C61 61.0004 80.9638 60.9358 85.5 61.0004C90.0362 61.0651 96.0507 61.091 98.5 63.5004M104.5 69.5002C110.073 73.82 121.497 88.4021 119 107" stroke="white" stroke-width="5" stroke-miterlimit="16" stroke-linecap="square"/>
</svg>
