<svg width="68" height="63" viewBox="0 0 68 63" fill="none" xmlns="http://www.w3.org/2000/svg">
<path d="M32.1353 50.3962L23.1353 42.1462L4.76031 60.8962C4.76031 60.8962 14.1353 60.8962 23.1353 60.8962C28.4088 60.8962 32.6578 59.0962 36.9286 55.1902M36.9286 55.1902C39.9466 52.4295 42.2258 49.368 45.6353 44.3962M36.9286 55.1902L42.6353 60.8962H62.8853L34.0103 32.0212L41.5103 24.5215M46.7603 19.2714L62.8853 2.02153H42.6353L4.76031 39.8962V2.02153C4.76031 2.02153 19.7332 1.97308 23.1353 2.02153C26.5375 2.07006 31.0483 2.08948 32.8853 3.89653M37.3853 8.39638C41.5651 11.6362 50.1331 22.5728 48.2603 36.5212" stroke="black" stroke-width="4" stroke-miterlimit="16" stroke-linecap="round"/>
</svg>
